<?xml version="1.0" encoding="UTF-8"?>
<!DOCTYPE svg PUBLIC "-//W3C//DTD SVG 1.1//EN" "http://www.w3.org/Graphics/SVG/1.1/DTD/svg11.dtd">
<!-- Creator: CorelDRAW X7 -->
<svg xmlns="http://www.w3.org/2000/svg" xml:space="preserve" width="135.467mm" height="126.569mm" version="1.1" style="shape-rendering:geometricPrecision; text-rendering:geometricPrecision; image-rendering:optimizeQuality; fill-rule:evenodd; clip-rule:evenodd"
viewBox="0 0 3631 3392"
 xmlns:xlink="http://www.w3.org/1999/xlink"
 enable-background="new 0 0 512 512">
 <defs>
  <style type="text/css">
   <![CDATA[
    .fil0 {fill:url(#id0)}
    .fil2 {fill:url(#id1)}
    .fil1 {fill:url(#id2)}
   ]]>
  </style>
  <linearGradient id="id0" gradientUnits="userSpaceOnUse" x1="1815.35" y1="3290.46" x2="1815.35" y2="101.768">
   <stop offset="0" style="stop-opacity:1; stop-color:#00CCFF"/>
   <stop offset="0.411765" style="stop-opacity:1; stop-color:#00E5FF"/>
   <stop offset="1" style="stop-opacity:1; stop-color:aqua"/>
  </linearGradient>
  <linearGradient id="id1" gradientUnits="userSpaceOnUse" xlink:href="#id0" x1="1815.36" y1="1597.68" x2="1815.36" y2="1411.72">
  </linearGradient>
  <linearGradient id="id2" gradientUnits="userSpaceOnUse" xlink:href="#id0" x1="1815.36" y1="1114.19" x2="1815.36" y2="928.232">
  </linearGradient>
 </defs>
 <g id="Layer_x0020_1">
  <metadata id="CorelCorpID_0Corel-Layer"/>
  <g id="_2795785320272">
   <g>
    <g>
     <path class="fil0" d="M3628 1282c0,-5 -1,-14 -3,-18 -6,-21 -18,-39 -37,-52l-520 -361 0 -388c0,-51 -41,-93 -93,-93l-598 0 -508 -353c-32,-22 -74,-23 -106,-1l-512 354 -596 0c-51,0 -93,42 -93,93l0 383 -522 361c-26,18 -39,46 -40,75 0,1 0,1 0,2l3 2015c0,25 10,49 27,66 18,17 41,27 66,27 0,0 0,0 0,0l3442 -5c51,0 93,-41 93,-93l-3 -2012zm-560 -205l297 207 -297 206 0 -413zm-1253 -871l237 164 -474 0 237 -164zm-1067 350l2134 0 0 1063 -716 499 -292 -227c-1,0 -1,-1 -2,-1 -32,-24 -78,-25 -112,1l-294 228 -718 -495 0 -1068zm-186 516l0 423 -306 -211 306 -212zm-376 389l1125 778 -1123 871 -2 -1649zm182 1745l1449 -1124 1443 1120 -2892 4zm1952 -969l1122 -780 2 1652 -1124 -872z"/>
    </g>
   </g>
   <g>
    <g>
     <path class="fil1" d="M2445 928l-1259 0c-51,0 -93,42 -93,93 0,52 42,93 93,93l1259 0c51,0 93,-41 93,-93 0,-51 -42,-93 -93,-93z"/>
    </g>
   </g>
   <g>
    <g>
     <path class="fil2" d="M2445 1412l-1259 0c-51,0 -93,41 -93,93 0,51 42,93 93,93l1259 0c51,0 93,-42 93,-93 0,-52 -42,-93 -93,-93z"/>
    </g>
   </g>
  </g>
 </g>
</svg>
