<?xml version="1.0" encoding="UTF-8"?>
<!DOCTYPE svg PUBLIC "-//W3C//DTD SVG 1.1//EN" "http://www.w3.org/Graphics/SVG/1.1/DTD/svg11.dtd">
<!-- Creator: CorelDRAW X7 -->
<svg xmlns="http://www.w3.org/2000/svg" xml:space="preserve" width="135.466mm" height="135.467mm" version="1.1" style="shape-rendering:geometricPrecision; text-rendering:geometricPrecision; image-rendering:optimizeQuality; fill-rule:evenodd; clip-rule:evenodd"
viewBox="0 0 9438 9438"
 xmlns:xlink="http://www.w3.org/1999/xlink"
 enable-background="new 0 0 512 512">
 <defs>
  <style type="text/css">
   <![CDATA[
    .fil0 {fill:url(#id0)}
    .fil3 {fill:url(#id1)}
    .fil2 {fill:url(#id2)}
    .fil1 {fill:url(#id3)}
   ]]>
  </style>
  <linearGradient id="id0" gradientUnits="userSpaceOnUse" x1="2903.04" y1="8013.26" x2="6341.83" y2="1617.06">
   <stop offset="0" style="stop-opacity:1; stop-color:#00CCFF"/>
   <stop offset="1" style="stop-opacity:1; stop-color:aqua"/>
  </linearGradient>
  <linearGradient id="id1" gradientUnits="userSpaceOnUse" xlink:href="#id0" x1="5172.95" y1="4732.84" x2="6261.62" y2="2707.9">
  </linearGradient>
  <linearGradient id="id2" gradientUnits="userSpaceOnUse" xlink:href="#id0" x1="6098.14" y1="4246.82" x2="8207.91" y2="322.474">
  </linearGradient>
  <linearGradient id="id3" gradientUnits="userSpaceOnUse" xlink:href="#id0" x1="5430.46" y1="4871.37" x2="7439.93" y2="1133.65">
  </linearGradient>
 </defs>
 <g id="Layer_x0020_1">
  <metadata id="CorelCorpID_0Corel-Layer"/>
  <g id="_2795785322224">
   <g>
    <g>
     <path class="fil0" d="M9079 7384l-1849 -1850c-221,-220 -580,-220 -801,0l-480 481c-151,151 -199,366 -144,558l-181 181c0,0 0,0 0,0 -129,129 -932,-69 -1902,-1039 -969,-970 -1167,-1772 -1039,-1901 0,0 0,0 0,0l182 -182c51,15 104,23 157,23 145,0 290,-55 400,-166l481 -481c221,-220 221,-580 0,-800l-1849 -1850c-107,-107 -249,-165 -400,-165 -151,0 -294,58 -401,165l-480 481c-151,151 -199,366 -144,558 0,0 -154,155 -161,165 -512,568 -608,1464 -269,2534 333,1048 1048,2158 2016,3126 968,968 2079,1684 3127,2016 421,134 814,200 1172,200 587,0 1075,-178 1426,-529l101 -100c50,14 103,22 157,22 151,0 293,-59 400,-166l481 -481c221,-221 221,-580 0,-800zm-7425 -6625l1849 1849 -481 481c0,0 0,0 0,0l-7 -7 -917 -918 -925 -924 481 -481zm5886 7750c0,0 0,0 0,0 -408,407 -1128,475 -2027,190 -964,-306 -1992,-972 -2897,-1877 -905,-905 -1572,-1934 -1877,-2897 -285,-900 -218,-1620 190,-2027l0 0 51 -51 1435 1435 -132 132c0,0 0,0 0,0 -545,546 110,1772 1039,2702 696,695 1558,1237 2176,1237 208,0 389,-61 526,-198 0,-1 0,-1 0,-1l132 -131 1435 1435 -51 51zm658 -244l-1849 -1849 481 -481 1849 1849c0,0 -481,481 -481,481z"/>
    </g>
   </g>
   <g>
    <g>
     <path class="fil1" d="M7167 2271c-538,-539 -1254,-835 -2015,-835 -157,0 -284,127 -284,283 0,156 127,283 284,283 610,0 1183,237 1615,669 431,431 669,1005 669,1615 0,156 127,283 283,283 156,0 283,-126 283,-283 0,-761 -297,-1477 -835,-2015z"/>
    </g>
   </g>
   <g>
    <g>
     <path class="fil2" d="M8182 1255c-809,-809 -1886,-1255 -3031,-1255 -156,0 -283,127 -283,283 0,156 127,283 283,283 994,0 1928,387 2631,1090 703,702 1090,1637 1090,2630 0,157 126,283 283,283 156,0 283,-126 283,-283 0,-1145 -446,-2221 -1256,-3031z"/>
    </g>
   </g>
   <g>
    <g>
     <path class="fil3" d="M6152 3286c-271,-271 -617,-414 -1000,-414 0,0 0,0 0,0 -157,0 -283,126 -283,283 0,156 126,283 283,283 0,0 0,0 0,0 233,0 435,83 600,248 162,163 248,370 248,600 0,156 127,283 283,283l0 0c156,0 283,-127 283,-283 0,-383 -143,-729 -414,-1000z"/>
    </g>
   </g>
  </g>
 </g>
</svg>
