<?xml version="1.0" encoding="UTF-8"?>
<!DOCTYPE svg PUBLIC "-//W3C//DTD SVG 1.1//EN" "http://www.w3.org/Graphics/SVG/1.1/DTD/svg11.dtd">
<!-- Creator: CorelDRAW X7 -->
<svg xmlns="http://www.w3.org/2000/svg" xml:space="preserve" width="101.614mm" height="135.467mm" version="1.1" style="shape-rendering:geometricPrecision; text-rendering:geometricPrecision; image-rendering:optimizeQuality; fill-rule:evenodd; clip-rule:evenodd"
viewBox="0 0 6980 9305"
 xmlns:xlink="http://www.w3.org/1999/xlink"
 enable-background="new 0 0 512 512">
 <defs>
  <style type="text/css">
   <![CDATA[
    .fil0 {fill:url(#id0)}
    .fil1 {fill:url(#id1)}
   ]]>
  </style>
  <linearGradient id="id0" gradientUnits="userSpaceOnUse" x1="3349.55" y1="9218.01" x2="3630.42" y2="87.3684">
   <stop offset="0" style="stop-opacity:1; stop-color:#00CCFF"/>
   <stop offset="0.580392" style="stop-opacity:1; stop-color:#00E5FF"/>
   <stop offset="1" style="stop-opacity:1; stop-color:aqua"/>
  </linearGradient>
  <linearGradient id="id1" gradientUnits="userSpaceOnUse" xlink:href="#id0" x1="3465.32" y1="3966.09" x2="3514.77" y2="1823.07">
  </linearGradient>
 </defs>
 <g id="Layer_x0020_1">
  <metadata id="CorelCorpID_0Corel-Layer"/>
  <g id="_2795789901104">
   <g>
    <g>
     <path class="fil0" d="M6958 8978l-1227 -2595c-24,-52 -67,-92 -118,-113l-610 -272 1058 -1773c2,-4 4,-8 7,-12 210,-411 317,-854 317,-1318 0,-781 -307,-1513 -862,-2061 -556,-549 -1293,-845 -2074,-834 -759,11 -1473,316 -2012,858 -538,543 -837,1260 -842,2019 -2,464 107,926 317,1336 2,4 5,8 7,12l1058 1773 -614 273c-50,22 -91,62 -114,112l-1227 2595c-41,86 -24,190 43,258 68,69 170,89 258,50l1537 -685 1537 685c59,26 127,26 186,0l1537 -685 1537 685c30,13 62,19 93,19 61,0 120,-24 165,-69 67,-68 84,-172 43,-258zm-5640 -4981c-177,-348 -266,-724 -263,-1117 7,-1317 1084,-2402 2400,-2421 658,-8 1277,240 1745,702 468,461 725,1077 725,1734 0,388 -88,759 -263,1102l-1975 3310c-60,101 -158,112 -197,112 -39,0 -137,-11 -197,-112l-1975 -3310zm3896 4143c-60,-26 -128,-26 -187,0l-1537 684 -1537 -684c-59,-26 -127,-26 -187,0l-1064 474 926 -1958 586 -261 684 1147c126,211 347,336 592,336 245,0 466,-125 591,-336l685 -1147 586 261 926 1958 -1064 -474z"/>
    </g>
   </g>
   <g>
    <g>
     <path class="fil1" d="M3490 1847c-578,0 -1048,470 -1048,1048 0,577 470,1047 1048,1047 578,0 1048,-470 1048,-1047 0,-578 -470,-1048 -1048,-1048zm0 1636c-325,0 -589,-264 -589,-588 0,-325 264,-589 589,-589 325,0 589,264 589,589 0,324 -264,588 -589,588z"/>
    </g>
   </g>
  </g>
 </g>
</svg>
