<?xml version="1.0" encoding="UTF-8"?>
<!DOCTYPE svg PUBLIC "-//W3C//DTD SVG 1.1//EN" "http://www.w3.org/Graphics/SVG/1.1/DTD/svg11.dtd">
<!-- Creator: CorelDRAW X7 -->
<svg xmlns="http://www.w3.org/2000/svg" xml:space="preserve" width="135.467mm" height="135.467mm" version="1.1" style="shape-rendering:geometricPrecision; text-rendering:geometricPrecision; image-rendering:optimizeQuality; fill-rule:evenodd; clip-rule:evenodd"
viewBox="0 0 27834 27834"
 xmlns:xlink="http://www.w3.org/1999/xlink"
 enable-background="new 0 0 512 512">
 <defs>
  <style type="text/css">
   <![CDATA[
    .fil0 {fill:url(#id0)}
   ]]>
  </style>
  <linearGradient id="id0" gradientUnits="userSpaceOnUse" x1="13916.9" y1="26720.5" x2="13916.9" y2="1113.36">
   <stop offset="0" style="stop-opacity:1; stop-color:#00CCFF"/>
   <stop offset="0.631373" style="stop-opacity:1; stop-color:#00E5FF"/>
   <stop offset="1" style="stop-opacity:1; stop-color:aqua"/>
  </linearGradient>
 </defs>
 <g id="Layer_x0020_1">
  <metadata id="CorelCorpID_0Corel-Layer"/>
  <g id="_2795787666848">
   <g>
    <g>
     <path class="fil0" d="M23758 4076c-2629,-2628 -6124,-4076 -9841,-4076 -3717,0 -7212,1448 -9841,4076 -2628,2629 -4076,6124 -4076,9841 0,3717 1448,7212 4076,9841 2629,2628 6124,4076 9841,4076 3717,0 7212,-1448 9841,-4076 2628,-2629 4076,-6124 4076,-9841 0,-3717 -1448,-7212 -4076,-9841zm-3319 1906l612 -2542c2436,1664 4265,4155 5079,7065l-321 62c-478,92 -863,457 -981,930l-124 501c-1,6 -2,9 -11,13 -9,3 -12,0 -17,-3l-743 -557c-384,-289 -909,-331 -1335,-108l-926 485c-445,233 -702,689 -671,1189 31,501 342,922 812,1098l44 17c5,2 9,3 11,12 2,9 0,12 -4,16l-577 664c-6,7 -16,8 -24,3l-1555 -1003c-357,-231 -802,-265 -1190,-93 -388,172 -661,525 -729,944l-120 734c-68,414 74,832 381,1119l811 759c7,6 8,16 3,23l-1322 2005c-126,191 -198,412 -207,641l-115 2870c0,4 -2,8 -5,12l-1761 1726c-6,6 -15,7 -22,3l-1142 -669c-4,-3 -7,-7 -8,-12 0,0 -554,-2514 -575,-2570l-504 -1352c-168,-451 -587,-770 -1067,-812l-2305 -200c-6,-1 -11,-4 -14,-9l-1311 -2261c-2,-4 -3,-8 -3,-12l330 -2193c1,-4 3,-9 7,-11l2014 -1520c5,-3 11,-4 17,-2l1951 814c111,46 228,76 348,89l2702 294c308,34 615,-47 867,-228l1790 -1283c482,-345 657,-990 415,-1532l-166 -371c-193,-432 -606,-716 -1078,-742l-5027 -275c-3,0 -6,-1 -8,-2 -5,-3 -8,-5 -8,-5l0 0c-3,-6 -1,-20 2,-24 1,-1 4,-2 10,-4l1510 -407c199,-54 384,-157 534,-299l1846 -1742c3,-3 7,-4 11,-5l2778 -286c528,-54 967,-438 1091,-954zm-9410 -1022l1039 -1954c153,-289 201,-625 136,-946l-141 -687c605,-89 1224,-136 1854,-136 635,0 1259,48 1870,138 0,0 -149,163 -175,173l-1471 590c-210,84 -399,220 -546,392l-2292 2679c-31,36 -76,58 -124,60 -73,4 -118,-37 -139,-60 -82,-91 -19,-234 -11,-249zm-5407 -626l0 1856c0,518 -259,995 -694,1277l-1332 865c-308,200 -570,455 -777,759l-1209 1771c639,-2575 2067,-4842 4012,-6528zm809 18258l-175 1421c-1983,-1508 -3510,-3585 -4335,-5987l788 0c96,0 185,49 237,130l1592 2480c71,111 157,213 254,302l1549 1412c67,61 101,152 90,242zm7486 4005c-2379,0 -4607,-659 -6511,-1804l253 -2049c60,-488 -122,-977 -485,-1308 0,0 -1582,-1448 -1595,-1468l-1592 -2480c-281,-438 -759,-699 -1278,-699l-1144 0c-214,-923 -328,-1884 -328,-2872 0,-107 1,-213 4,-319l2599 -3809c115,-168 259,-309 430,-420l1331 -863c788,-511 1258,-1377 1258,-2316l0 -2802c1201,-808 2547,-1415 3990,-1775l143 696c8,39 2,81 -17,116l-1038 1955c-65,122 -149,443 -149,443 -85,427 29,861 313,1191 270,315 657,493 1069,493 20,0 618,29 1073,-494l2292 -2678c18,-22 41,-38 67,-49l1471 -590c209,-83 397,-218 544,-389l555 -645c977,259 1909,633 2779,1105 -14,33 -714,2925 -714,2925 -2,8 -8,13 -16,14l-2778 286c-273,28 -534,147 -733,336l-1846 1741c-2,2 -5,4 -8,5l-1509 407c-493,132 -853,545 -918,1051 -66,506 178,996 621,1250 169,96 361,153 555,163l5028 276c6,0 12,4 15,10l166 372c3,8 1,17 -6,22l-1790 1283c-4,3 -8,4 -13,3l-2707 -295 -1950 -813c-410,-171 -885,-111 -1239,156l-2014 1519c-264,199 -436,489 -485,815l-330 2193c-42,281 13,571 156,816l1311 2262c205,353 570,585 977,620l2305 201c7,0 13,5 15,11l505 1355 524 2399c75,342 291,639 592,815l1142 669c197,115 415,172 633,172 321,0 639,-123 880,-359l1761 -1726c229,-225 363,-525 375,-846l115 -2870c0,-3 1,-6 3,-9l1323 -2004c337,-513 257,-1189 -191,-1608l-811 -759c-4,-4 -6,-10 -6,-16l121 -734c1,-6 1,-9 10,-13 9,-4 12,-2 17,1l1556 1004c521,336 1220,237 1627,-231l577 -664c270,-310 371,-733 270,-1131 -101,-399 -391,-723 -776,-867l-44 -17c-5,-2 -8,-4 -8,-4 -4,-4 -4,-18 -2,-23 1,0 3,-3 8,-5l927 -486c6,-3 14,-2 19,2l743 557c337,253 776,320 1174,178 397,-141 695,-470 797,-880l124 -501c2,-7 7,-12 14,-13l361 -70c127,716 193,1453 193,2205 0,6992 -5688,12680 -12680,12680z"/>
    </g>
   </g>
  </g>
 </g>
</svg>
